fd_3_states
version=1
nRows=43
nColumns=17
inDegrees=yes

# SIMM Motion File Header:
name fd_3_states
datacolumns 17
datarows 43
otherdata 1
range 0.714324 0.729322
endheader
time	/jointset/r_shoulder/r_shoulder_elev/value	/jointset/r_shoulder/r_shoulder_elev/speed	/jointset/r_elbow/r_elbow_flex/value	/jointset/r_elbow/r_elbow_flex/speed	/forceset/TRIlong/activation	/forceset/TRIlong/fiber_length	/forceset/TRIlat/activation	/forceset/TRIlat/fiber_length	/forceset/TRImed/activation	/forceset/TRImed/fiber_length	/forceset/BIClong/activation	/forceset/BIClong/fiber_length	/forceset/BICshort/activation	/forceset/BICshort/fiber_length	/forceset/BRA/activation	/forceset/BRA/fiber_length
      0.714324	    -14.651588	   -143.517674	    233.929260	    261.987156	      0.042280	      0.160094	      0.400217	      0.102179	      0.392111	      0.097245	      0.144189	      0.097733	      0.039525	      0.095973	      0.033814	      0.047901
      0.715138	    -14.767663	   -141.801135	    234.141843	    260.558576	      0.042026	      0.159969	      0.397869	      0.102121	      0.389681	      0.097188	      0.143656	      0.097963	      0.039304	      0.096188	      0.033758	      0.047975
      0.715787	    -14.859285	   -140.428619	    234.310644	    259.407727	      0.041826	      0.159870	      0.396037	      0.102076	      0.387786	      0.097143	      0.143237	      0.098146	      0.039130	      0.096390	      0.033713	      0.048034
      0.716437	    -14.950016	   -139.058461	    234.478697	    258.264355	      0.041627	      0.159771	      0.394242	      0.102031	      0.385929	      0.097098	      0.142823	      0.098328	      0.038957	      0.096551	      0.033669	      0.048092
      0.717086	    -15.039857	   -137.685846	    234.646006	    257.110699	      0.041431	      0.159673	      0.392483	      0.101986	      0.384108	      0.097053	      0.142414	      0.098509	      0.038786	      0.096743	      0.033625	      0.048151
      0.717735	    -15.128807	   -136.314558	    234.812566	    255.960207	      0.041236	      0.159576	      0.390759	      0.101942	      0.382324	      0.097009	      0.142011	      0.098689	      0.038617	      0.096908	      0.033582	      0.048210
      0.718384	    -15.216866	   -134.941411	    234.978378	    254.801238	      0.041043	      0.159480	      0.389070	      0.101897	      0.380575	      0.096964	      0.141612	      0.098867	      0.038449	      0.097097	      0.033539	      0.048268
      0.719168	    -15.321984	   -133.286016	    235.177543	    253.407694	      0.040813	      0.159364	      0.387074	      0.101843	      0.378509	      0.096911	      0.141137	      0.099082	      0.038248	      0.097296	      0.033488	      0.048338
      0.719860	    -15.413645	   -131.822522	    235.352346	    252.164901	      0.040612	      0.159263	      0.385352	      0.101796	      0.376726	      0.096864	      0.140724	      0.099270	      0.038073	      0.097504	      0.033443	      0.048400
      0.720551	    -15.504295	   -130.361839	    235.526289	    250.929731	      0.040413	      0.159163	      0.383688	      0.101749	      0.375023	      0.096817	      0.140261	      0.099457	      0.037900	      0.097669	      0.033384	      0.048462
      0.721243	    -15.593934	   -128.899035	    235.699376	    249.684737	      0.040217	      0.159063	      0.382094	      0.101702	      0.373428	      0.096770	      0.139708	      0.099644	      0.037729	      0.097870	      0.033302	      0.048524
      0.721934	    -15.682562	   -127.439669	    235.871604	    248.449680	      0.040022	      0.158964	      0.380535	      0.101655	      0.371868	      0.096723	      0.139160	      0.099830	      0.037559	      0.098036	      0.033219	      0.048585
      0.722626	    -15.770181	   -125.979457	    236.042978	    247.209517	      0.039829	      0.158866	      0.379007	      0.101609	      0.370339	      0.096677	      0.138618	      0.100015	      0.037391	      0.098234	      0.033138	      0.048647
      0.723317	    -15.856792	   -124.522851	    236.213497	    245.979911	      0.039638	      0.158769	      0.377510	      0.101562	      0.368842	      0.096630	      0.138084	      0.100199	      0.037225	      0.098399	      0.033057	      0.048708
      0.724009	    -15.942395	   -123.065688	    236.383165	    244.746287	      0.039449	      0.158672	      0.376044	      0.101515	      0.367374	      0.096583	      0.137557	      0.100382	      0.037060	      0.098594	      0.032976	      0.048769
      0.724700	    -16.026992	   -121.612058	    236.551982	    243.522980	      0.039262	      0.158576	      0.374608	      0.101469	      0.365936	      0.096537	      0.137037	      0.100563	      0.036897	      0.098759	      0.032897	      0.048830
      0.725392	    -16.110584	   -120.158199	    236.719954	    242.296869	      0.039077	      0.158481	      0.373200	      0.101423	      0.364526	      0.096491	      0.136523	      0.100743	      0.036735	      0.098950	      0.032818	      0.048891
      0.726083	    -16.193171	   -118.707770	    236.887080	    241.080728	      0.038894	      0.158386	      0.371821	      0.101376	      0.363145	      0.096444	      0.136017	      0.100922	      0.036576	      0.099113	      0.032740	      0.048951
      0.726775	    -16.274755	   -117.257462	    237.053366	    239.863065	      0.038712	      0.158293	      0.370469	      0.101330	      0.361791	      0.096398	      0.135517	      0.101100	      0.036417	      0.099301	      0.032663	      0.049011
      0.727466	    -16.355338	   -115.810452	    237.218812	    238.654913	      0.038532	      0.158200	      0.369144	      0.101284	      0.360464	      0.096352	      0.135024	      0.101277	      0.036261	      0.099464	      0.032587	      0.049072
      0.728158	    -16.434920	   -114.363937	    237.383423	    237.446585	      0.038355	      0.158108	      0.367846	      0.101238	      0.359163	      0.096306	      0.134537	      0.101453	      0.036106	      0.099647	      0.032511	      0.049132
      0.728306	    -16.451880	   -114.053868	    237.418664	    237.188799	      0.038317	      0.158088	      0.367571	      0.101228	      0.358886	      0.096297	      0.134433	      0.101490	      0.036073	      0.099681	      0.032495	      0.049144
      0.728439	    -16.467007	   -113.776566	    237.450146	    236.958145	      0.038283	      0.158070	      0.367325	      0.101220	      0.358641	      0.096288	      0.134340	      0.101524	      0.036043	      0.099713	      0.032481	      0.049156
      0.728561	    -16.480887	   -113.521572	    237.479072	    236.746051	      0.038252	      0.158054	      0.367101	      0.101211	      0.358415	      0.096280	      0.134256	      0.101555	      0.036016	      0.099743	      0.032467	      0.049166
      0.728676	    -16.493896	   -113.282079	    237.506220	    236.546895	      0.038223	      0.158039	      0.366890	      0.101204	      0.358204	      0.096272	      0.134176	      0.101584	      0.035991	      0.099771	      0.032455	      0.049176
      0.728733	    -16.500390	   -113.162349	    237.519785	    236.447355	      0.038208	      0.158031	      0.366785	      0.101200	      0.358099	      0.096268	      0.134136	      0.101598	      0.035978	      0.099785	      0.032449	      0.049181
      0.728762	    -16.503635	   -113.102488	    237.526566	    236.397595	      0.038201	      0.158028	      0.366733	      0.101198	      0.358047	      0.096266	      0.134117	      0.101605	      0.035972	      0.099792	      0.032446	      0.049184
      0.728800	    -16.507995	   -113.022007	    237.535680	    236.330701	      0.038191	      0.158023	      0.366662	      0.101196	      0.357976	      0.096264	      0.134090	      0.101615	      0.035963	      0.099802	      0.032441	      0.049187
      0.728829	    -16.511227	   -112.962302	    237.542440	    236.281082	      0.038184	      0.158019	      0.366610	      0.101194	      0.357924	      0.096262	      0.134070	      0.101622	      0.035957	      0.099809	      0.032438	      0.049190
      0.728856	    -16.514252	   -112.906408	    237.548768	    236.234635	      0.038177	      0.158015	      0.366561	      0.101192	      0.357875	      0.096260	      0.134052	      0.101629	      0.035951	      0.099816	      0.032436	      0.049192
      0.728867	    -16.515514	   -112.883091	    237.551408	    236.215260	      0.038174	      0.158014	      0.366541	      0.101191	      0.357854	      0.096259	      0.134044	      0.101632	      0.035948	      0.099818	      0.032434	      0.049193
      0.728871	    -16.515975	   -112.874555	    237.552374	    236.208168	      0.038173	      0.158013	      0.366534	      0.101191	      0.357847	      0.096259	      0.134041	      0.101633	      0.035947	      0.099819	      0.032434	      0.049193
      0.728873	    -16.516169	   -112.870978	    237.552779	    236.205196	      0.038173	      0.158013	      0.366530	      0.101191	      0.357844	      0.096259	      0.134040	      0.101633	      0.035947	      0.099820	      0.032434	      0.049193
      0.728873	    -16.516232	   -112.886457	    237.552910	    236.224658	      0.038173	      0.158135	      0.366529	      0.101191	      0.357843	      0.096259	      0.134040	      0.101633	      0.035947	      0.099820	      0.032434	      0.049193
      0.728874	    -16.516294	   -112.904905	    237.553041	    236.247764	      0.038172	      0.158280	      0.366528	      0.101191	      0.357842	      0.096259	      0.134039	      0.101633	      0.035947	      0.099820	      0.032434	      0.049193
      0.728877	    -16.516608	   -112.991630	    237.553697	    236.356522	      0.038172	      0.158962	      0.366523	      0.101191	      0.357837	      0.096259	      0.134037	      0.101634	      0.035946	      0.099821	      0.032433	      0.049194
      0.728890	    -16.518178	   -113.311659	    237.556979	    236.760666	      0.038168	      0.161531	      0.366498	      0.101190	      0.357811	      0.096258	      0.134028	      0.101638	      0.035943	      0.099824	      0.032432	      0.049195
      0.728921	    -16.521604	   -113.616670	    237.564134	    237.158772	      0.038161	      0.164162	      0.366443	      0.101188	      0.357756	      0.096256	      0.134007	      0.101645	      0.035936	      0.099832	      0.032429	      0.049197
      0.728951	    -16.525035	   -113.694039	    237.571295	    237.276720	      0.038153	      0.165027	      0.366388	      0.101186	      0.357701	      0.096254	      0.133986	      0.101653	      0.035930	      0.099839	      0.032425	      0.049200
      0.728981	    -16.528467	   -113.702160	    237.578458	    237.309402	      0.038145	      0.165345	      0.366334	      0.101184	      0.357646	      0.096252	      0.133965	      0.101660	      0.035923	      0.099847	      0.032422	      0.049203
      0.729042	    -16.535421	   -113.667390	    237.592973	    237.312745	      0.038130	      0.165583	      0.366223	      0.101180	      0.357535	      0.096248	      0.133923	      0.101676	      0.035910	      0.099862	      0.032415	      0.049208
      0.729182	    -16.551335	   -113.531951	    237.626213	    237.252383	      0.038094	      0.165685	      0.365969	      0.101170	      0.357281	      0.096239	      0.133827	      0.101711	      0.035879	      0.099897	      0.032400	      0.049220
      0.729322	    -16.567228	   -113.377187	    237.659442	    237.169612	      0.038059	      0.165696	      0.365717	      0.101161	      0.357028	      0.096229	      0.133731	      0.101746	      0.035848	      0.099932	      0.032385	      0.049232
